<svg width="12" height="10" viewBox="0 0 12 10" fill="none" xmlns="http://www.w3.org/2000/svg">
<path d="M4.02 10C3.43 10 3.0376 9.90741 2.8428 9.72222C2.6476 9.53704 2.37 9.44444 2.01 9.44444C1.87 9.44444 1.735 9.46759 1.605 9.51389C1.475 9.56019 1.235 9.67593 0.885 9.86111C0.685 9.96296 0.4874 9.96056 0.2922 9.85389C0.0974 9.74759 0 9.58796 0 9.375C0 9.27315 0.0276 9.17833 0.0828 9.09056C0.1376 9.00241 0.215 8.93519 0.315 8.88889C0.795 8.64815 1.1276 8.49537 1.3128 8.43056C1.4976 8.36574 1.73 8.33333 2.01 8.33333C2.58 8.33333 2.9626 8.42593 3.1578 8.61111C3.3526 8.7963 3.63 8.88889 3.99 8.88889C4.37 8.88889 4.6524 8.7963 4.8372 8.61111C5.0224 8.42593 5.41 8.33333 6 8.33333C6.57 8.33333 6.955 8.42593 7.155 8.61111C7.355 8.7963 7.63 8.88889 7.98 8.88889C8.36 8.88889 8.6424 8.7963 8.8272 8.61111C9.0124 8.42593 9.4 8.33333 9.99 8.33333C10.27 8.33333 10.505 8.36574 10.695 8.43056C10.885 8.49537 11.215 8.64815 11.685 8.88889C11.785 8.93519 11.8626 9.00241 11.9178 9.09056C11.9726 9.17833 12 9.27315 12 9.375C12 9.58796 11.9 9.74759 11.7 9.85389C11.5 9.96056 11.3 9.96296 11.1 9.86111C10.75 9.67593 10.5124 9.56019 10.3872 9.51389C10.2624 9.46759 10.13 9.44444 9.99 9.44444C9.63 9.44444 9.3576 9.53704 9.1728 9.72222C8.9876 9.90741 8.6 10 8.01 10C7.44 10 7.0526 9.90741 6.8478 9.72222C6.6426 9.53704 6.36 9.44444 6 9.44444C5.62 9.44444 5.3426 9.53704 5.1678 9.72222C4.9926 9.90741 4.61 10 4.02 10ZM2.4 0.555556C2.4 0.712963 2.3426 0.844815 2.2278 0.951111C2.1126 1.05778 1.97 1.11111 1.8 1.11111H1.2C1.03 1.11111 0.8876 1.05778 0.7728 0.951111C0.6576 0.844815 0.6 0.712963 0.6 0.555556C0.6 0.398148 0.6576 0.266111 0.7728 0.159444C0.8876 0.0531481 1.03 0 1.2 0H1.8C1.97 0 2.1126 0.0531481 2.2278 0.159444C2.3426 0.266111 2.4 0.398148 2.4 0.555556ZM3.315 2.59722C3.435 2.70833 3.495 2.84019 3.495 2.99278C3.495 3.14574 3.435 3.27778 3.315 3.38889L2.895 3.77778C2.785 3.87963 2.6476 3.93056 2.4828 3.93056C2.3176 3.93056 2.175 3.87963 2.055 3.77778C1.935 3.66667 1.875 3.53463 1.875 3.38167C1.875 3.22907 1.935 3.09722 2.055 2.98611L2.475 2.59722C2.585 2.49537 2.7224 2.44444 2.8872 2.44444C3.0524 2.44444 3.195 2.49537 3.315 2.59722ZM6 2.77778C5.17 2.77778 4.4626 2.50685 3.8778 1.965C3.2926 1.42352 3 0.768519 3 0H9C9 0.768519 8.7076 1.42352 8.1228 1.965C7.5376 2.50685 6.83 2.77778 6 2.77778ZM6 3.33333C6.17 3.33333 6.3126 3.38648 6.4278 3.49278C6.5426 3.59944 6.6 3.73148 6.6 3.88889V4.44444C6.6 4.60185 6.5426 4.7337 6.4278 4.84C6.3126 4.94667 6.17 5 6 5C5.83 5 5.6876 4.94667 5.5728 4.84C5.4576 4.7337 5.4 4.60185 5.4 4.44444V3.88889C5.4 3.73148 5.4576 3.59944 5.5728 3.49278C5.6876 3.38648 5.83 3.33333 6 3.33333ZM8.685 2.61111C8.795 2.50926 8.935 2.45833 9.105 2.45833C9.275 2.45833 9.415 2.50926 9.525 2.61111L9.945 3C10.065 3.11111 10.1276 3.24074 10.1328 3.38889C10.1376 3.53704 10.08 3.66667 9.96 3.77778C9.84 3.88889 9.6976 3.94444 9.5328 3.94444C9.3676 3.94444 9.225 3.88889 9.105 3.77778L8.685 3.38889C8.575 3.27778 8.5176 3.14815 8.5128 3C8.5076 2.85185 8.565 2.72222 8.685 2.61111ZM11.4 0.555556C11.4 0.712963 11.3424 0.844815 11.2272 0.951111C11.1124 1.05778 10.97 1.11111 10.8 1.11111H10.2C10.03 1.11111 9.8876 1.05778 9.7728 0.951111C9.6576 0.844815 9.6 0.712963 9.6 0.555556C9.6 0.398148 9.6576 0.266111 9.7728 0.159444C9.8876 0.0531481 10.03 0 10.2 0H10.8C10.97 0 11.1124 0.0531481 11.2272 0.159444C11.3424 0.266111 11.4 0.398148 11.4 0.555556ZM4.02 7.77778C3.43 7.77778 3.0376 7.68519 2.8428 7.5C2.6476 7.31482 2.37 7.22222 2.01 7.22222C1.87 7.22222 1.74 7.24315 1.62 7.285C1.5 7.32648 1.265 7.43982 0.915 7.625C0.715 7.72685 0.515 7.72444 0.315 7.61778C0.115 7.51148 0.0150001 7.35185 0.0150001 7.13889C0.0150001 7.03704 0.0426001 6.94204 0.0978001 6.85389C0.1526 6.76611 0.23 6.69907 0.33 6.65278C0.81 6.41204 1.14 6.26148 1.32 6.20111C1.5 6.14111 1.73 6.11111 2.01 6.11111C2.58 6.11111 2.9626 6.2037 3.1578 6.38889C3.3526 6.57407 3.63 6.66667 3.99 6.66667C4.37 6.66667 4.6524 6.57407 4.8372 6.38889C5.0224 6.2037 5.41 6.11111 6 6.11111C6.57 6.11111 6.955 6.2037 7.155 6.38889C7.355 6.57407 7.63 6.66667 7.98 6.66667C8.36 6.66667 8.6424 6.57407 8.8272 6.38889C9.0124 6.2037 9.4 6.11111 9.99 6.11111C10.27 6.11111 10.5 6.14111 10.68 6.20111C10.86 6.26148 11.185 6.41204 11.655 6.65278C11.755 6.69907 11.8324 6.76611 11.8872 6.85389C11.9424 6.94204 11.97 7.03704 11.97 7.13889C11.97 7.35185 11.87 7.51148 11.67 7.61778C11.47 7.72444 11.27 7.72685 11.07 7.625C10.72 7.43982 10.4876 7.32648 10.3728 7.285C10.2576 7.24315 10.13 7.22222 9.99 7.22222C9.63 7.22222 9.3576 7.31482 9.1728 7.5C8.9876 7.68519 8.6 7.77778 8.01 7.77778C7.44 7.77778 7.0526 7.68519 6.8478 7.5C6.6426 7.31482 6.36 7.22222 6 7.22222C5.62 7.22222 5.3426 7.31482 5.1678 7.5C4.9926 7.68519 4.61 7.77778 4.02 7.77778Z" fill="#08083D" fill-opacity="0.54"/>
</svg>
