<svg width="13" height="7" viewBox="0 0 13 7" fill="none" xmlns="http://www.w3.org/2000/svg">
<path d="M0 3.65909C0 3.54242 0.0407333 3.43382 0.1222 3.33327C0.203233 3.2323 0.319583 3.1553 0.47125 3.10227C0.687917 3.01742 0.904583 2.9033 1.12125 2.75991C1.33792 2.61694 1.69 2.54545 2.1775 2.54545C2.795 2.54545 3.20948 2.65152 3.42095 2.86364C3.63198 3.07576 3.9325 3.18182 4.3225 3.18182C4.73417 3.18182 5.0401 3.07576 5.2403 2.86364C5.44093 2.65152 5.86083 2.54545 6.5 2.54545C7.1175 2.54545 7.53458 2.65152 7.75125 2.86364C7.96792 3.07576 8.26583 3.18182 8.645 3.18182C9.05667 3.18182 9.3626 3.07576 9.5628 2.86364C9.76343 2.65152 10.1833 2.54545 10.8225 2.54545C11.2992 2.54545 11.6487 2.61439 11.8709 2.75227C12.0928 2.89015 12.3121 3.00152 12.5287 3.08636C12.6804 3.13939 12.7968 3.21894 12.8778 3.325C12.9593 3.43106 13 3.54242 13 3.65909C13 3.89242 12.9162 4.08058 12.7485 4.22355C12.5803 4.36694 12.3987 4.40682 12.2037 4.34318C11.9112 4.25833 11.6783 4.14952 11.505 4.01673C11.3317 3.88436 11.1042 3.81818 10.8225 3.81818C10.4325 3.81818 10.1374 3.92424 9.9372 4.13636C9.73657 4.34848 9.31667 4.45455 8.6775 4.45455C8.06 4.45455 7.64032 4.34848 7.41845 4.13636C7.19615 3.92424 6.89 3.81818 6.5 3.81818C6.08833 3.81818 5.78782 3.92424 5.59845 4.13636C5.40865 4.34848 4.99417 4.45455 4.355 4.45455C3.71583 4.45455 3.29073 4.34848 3.0797 4.13636C2.86823 3.92424 2.5675 3.81818 2.1775 3.81818C1.89583 3.81818 1.66552 3.88436 1.48655 4.01673C1.30802 4.14952 1.07792 4.25833 0.79625 4.34318C0.60125 4.40682 0.4199 4.36694 0.2522 4.22355C0.0840667 4.08058 0 3.89242 0 3.65909ZM0 6.20455C0 6.08788 0.0407333 5.97927 0.1222 5.87873C0.203233 5.77776 0.319583 5.70076 0.47125 5.64773C0.687917 5.56288 0.904583 5.44876 1.12125 5.30536C1.33792 5.16239 1.69 5.09091 2.1775 5.09091C2.81667 5.09091 3.23635 5.19697 3.43655 5.40909C3.63718 5.62121 3.9325 5.72727 4.3225 5.72727C4.73417 5.72727 5.0401 5.62121 5.2403 5.40909C5.44093 5.19697 5.86083 5.09091 6.5 5.09091C7.1175 5.09091 7.5374 5.19697 7.7597 5.40909C7.98157 5.62121 8.2875 5.72727 8.6775 5.72727C9.08917 5.72727 9.3899 5.62121 9.5797 5.40909C9.76907 5.19697 10.1833 5.09091 10.8225 5.09091C11.31 5.09091 11.6621 5.16239 11.8787 5.30536C12.0954 5.44876 12.3121 5.56288 12.5287 5.64773C12.6804 5.70076 12.7968 5.77776 12.8778 5.87873C12.9593 5.97927 13 6.08788 13 6.20455C13 6.43788 12.9162 6.62624 12.7485 6.76964C12.5803 6.91261 12.3987 6.95227 12.2037 6.88864C11.9221 6.80379 11.6918 6.69497 11.5128 6.56218C11.3343 6.42982 11.1042 6.36364 10.8225 6.36364C10.4325 6.36364 10.1374 6.4697 9.9372 6.68182C9.73657 6.89394 9.31667 7 8.6775 7C8.06 7 7.64032 6.89394 7.41845 6.68182C7.19615 6.4697 6.89 6.36364 6.5 6.36364C6.08833 6.36364 5.7824 6.4697 5.5822 6.68182C5.38157 6.89394 4.96167 7 4.3225 7C3.68333 7 3.26907 6.89394 3.0797 6.68182C2.8899 6.4697 2.58917 6.36364 2.1775 6.36364C1.87417 6.36364 1.63865 6.42982 1.47095 6.56218C1.30282 6.69497 1.07792 6.80379 0.79625 6.88864C0.60125 6.95227 0.4199 6.91261 0.2522 6.76964C0.0840667 6.62624 0 6.43788 0 6.20455ZM0 1.11364C0 0.99697 0.0407333 0.888364 0.1222 0.787818C0.203233 0.686848 0.319583 0.609848 0.47125 0.556818C0.687917 0.47197 0.904583 0.35806 1.12125 0.215091C1.33792 0.0716969 1.69 0 2.1775 0C2.795 0 3.20948 0.106061 3.42095 0.318182C3.63198 0.530303 3.9325 0.636364 4.3225 0.636364C4.73417 0.636364 5.0401 0.530303 5.2403 0.318182C5.44093 0.106061 5.86083 0 6.5 0C7.1175 0 7.53458 0.106061 7.75125 0.318182C7.96792 0.530303 8.26583 0.636364 8.645 0.636364C9.05667 0.636364 9.3626 0.530303 9.5628 0.318182C9.76343 0.106061 10.1833 0 10.8225 0C11.2992 0 11.6487 0.0689393 11.8709 0.206818C12.0928 0.344697 12.3121 0.456061 12.5287 0.540909C12.6804 0.593939 12.7968 0.673485 12.8778 0.779546C12.9593 0.885606 13 0.99697 13 1.11364C13 1.34697 12.9162 1.53512 12.7485 1.67809C12.5803 1.82148 12.3987 1.86136 12.2037 1.79773C11.9112 1.71288 11.6783 1.60406 11.505 1.47127C11.3317 1.33891 11.1042 1.27273 10.8225 1.27273C10.4325 1.27273 10.1374 1.37879 9.9372 1.59091C9.73657 1.80303 9.31667 1.90909 8.6775 1.90909C8.06 1.90909 7.64032 1.80303 7.41845 1.59091C7.19615 1.37879 6.89 1.27273 6.5 1.27273C6.08833 1.27273 5.78782 1.37879 5.59845 1.59091C5.40865 1.80303 4.99417 1.90909 4.355 1.90909C3.71583 1.90909 3.29073 1.80303 3.0797 1.59091C2.86823 1.37879 2.5675 1.27273 2.1775 1.27273C1.89583 1.27273 1.66552 1.33891 1.48655 1.47127C1.30802 1.60406 1.07792 1.71288 0.79625 1.79773C0.60125 1.86136 0.4199 1.82148 0.2522 1.67809C0.0840667 1.53512 0 1.34697 0 1.11364Z" fill="#08083D" fill-opacity="0.54"/>
</svg>
