<svg width="13" height="17" viewBox="0 0 13 17" fill="none" xmlns="http://www.w3.org/2000/svg">
<path d="M2.84375 10.9363C3.07396 10.9363 3.26706 10.8531 3.42306 10.6868C3.57852 10.5211 3.65625 10.3155 3.65625 10.0701C3.65625 9.82463 3.57852 9.61875 3.42306 9.45243C3.26706 9.28669 3.07396 9.20382 2.84375 9.20382C2.61354 9.20382 2.42044 9.28669 2.26444 9.45243C2.10898 9.61875 2.03125 9.82463 2.03125 10.0701C2.03125 10.3155 2.10898 10.5211 2.26444 10.6868C2.42044 10.8531 2.61354 10.9363 2.84375 10.9363ZM4.0625 8.33758C4.29271 8.33758 4.48581 8.25442 4.64181 8.0881C4.79727 7.92236 4.875 7.71677 4.875 7.47134C4.875 7.2259 4.79727 7.02003 4.64181 6.85371C4.48581 6.68797 4.29271 6.6051 4.0625 6.6051C3.83229 6.6051 3.63946 6.68797 3.484 6.85371C3.328 7.02003 3.25 7.2259 3.25 7.47134C3.25 7.71677 3.328 7.92236 3.484 8.0881C3.63946 8.25442 3.83229 8.33758 4.0625 8.33758ZM4.0625 13.535C4.29271 13.535 4.48581 13.4519 4.64181 13.2856C4.79727 13.1198 4.875 12.9142 4.875 12.6688C4.875 12.4234 4.79727 12.2178 4.64181 12.052C4.48581 11.8857 4.29271 11.8025 4.0625 11.8025C3.83229 11.8025 3.63946 11.8857 3.484 12.052C3.328 12.2178 3.25 12.4234 3.25 12.6688C3.25 12.9142 3.328 13.1198 3.484 13.2856C3.63946 13.4519 3.83229 13.535 4.0625 13.535ZM5.28125 10.9363C5.51146 10.9363 5.70456 10.8531 5.86056 10.6868C6.01602 10.5211 6.09375 10.3155 6.09375 10.0701C6.09375 9.82463 6.01602 9.61875 5.86056 9.45243C5.70456 9.28669 5.51146 9.20382 5.28125 9.20382C5.05104 9.20382 4.85821 9.28669 4.70275 9.45243C4.54675 9.61875 4.46875 9.82463 4.46875 10.0701C4.46875 10.3155 4.54675 10.5211 4.70275 10.6868C4.85821 10.8531 5.05104 10.9363 5.28125 10.9363ZM5.28125 5.73885C5.51146 5.73885 5.70456 5.65569 5.86056 5.48938C6.01602 5.32363 6.09375 5.11805 6.09375 4.87261C6.09375 4.62718 6.01602 4.4213 5.86056 4.25498C5.70456 4.08924 5.51146 4.00637 5.28125 4.00637C5.05104 4.00637 4.85821 4.08924 4.70275 4.25498C4.54675 4.4213 4.46875 4.62718 4.46875 4.87261C4.46875 5.11805 4.54675 5.32363 4.70275 5.48938C4.85821 5.65569 5.05104 5.73885 5.28125 5.73885ZM6.5 8.33758C6.73021 8.33758 6.92331 8.25442 7.07931 8.0881C7.23477 7.92236 7.3125 7.71677 7.3125 7.47134C7.3125 7.2259 7.23477 7.02003 7.07931 6.85371C6.92331 6.68797 6.73021 6.6051 6.5 6.6051C6.26979 6.6051 6.07696 6.68797 5.9215 6.85371C5.7655 7.02003 5.6875 7.2259 5.6875 7.47134C5.6875 7.71677 5.7655 7.92236 5.9215 8.0881C6.07696 8.25442 6.26979 8.33758 6.5 8.33758ZM6.5 13.535C6.73021 13.535 6.92331 13.4519 7.07931 13.2856C7.23477 13.1198 7.3125 12.9142 7.3125 12.6688C7.3125 12.4234 7.23477 12.2178 7.07931 12.052C6.92331 11.8857 6.73021 11.8025 6.5 11.8025C6.26979 11.8025 6.07696 11.8857 5.9215 12.052C5.7655 12.2178 5.6875 12.4234 5.6875 12.6688C5.6875 12.9142 5.7655 13.1198 5.9215 13.2856C6.07696 13.4519 6.26979 13.535 6.5 13.535ZM7.71875 10.9363C7.94896 10.9363 8.14206 10.8531 8.29806 10.6868C8.45352 10.5211 8.53125 10.3155 8.53125 10.0701C8.53125 9.82463 8.45352 9.61875 8.29806 9.45243C8.14206 9.28669 7.94896 9.20382 7.71875 9.20382C7.48854 9.20382 7.29571 9.28669 7.14025 9.45243C6.98425 9.61875 6.90625 9.82463 6.90625 10.0701C6.90625 10.3155 6.98425 10.5211 7.14025 10.6868C7.29571 10.8531 7.48854 10.9363 7.71875 10.9363ZM7.71875 5.73885C7.94896 5.73885 8.14206 5.65569 8.29806 5.48938C8.45352 5.32363 8.53125 5.11805 8.53125 4.87261C8.53125 4.62718 8.45352 4.4213 8.29806 4.25498C8.14206 4.08924 7.94896 4.00637 7.71875 4.00637C7.48854 4.00637 7.29571 4.08924 7.14025 4.25498C6.98425 4.4213 6.90625 4.62718 6.90625 4.87261C6.90625 5.11805 6.98425 5.32363 7.14025 5.48938C7.29571 5.65569 7.48854 5.73885 7.71875 5.73885ZM8.9375 8.33758C9.16771 8.33758 9.36081 8.25442 9.51681 8.0881C9.67227 7.92236 9.75 7.71677 9.75 7.47134C9.75 7.2259 9.67227 7.02003 9.51681 6.85371C9.36081 6.68797 9.16771 6.6051 8.9375 6.6051C8.70729 6.6051 8.51446 6.68797 8.359 6.85371C8.203 7.02003 8.125 7.2259 8.125 7.47134C8.125 7.71677 8.203 7.92236 8.359 8.0881C8.51446 8.25442 8.70729 8.33758 8.9375 8.33758ZM8.9375 13.535C9.16771 13.535 9.36081 13.4519 9.51681 13.2856C9.67227 13.1198 9.75 12.9142 9.75 12.6688C9.75 12.4234 9.67227 12.2178 9.51681 12.052C9.36081 11.8857 9.16771 11.8025 8.9375 11.8025C8.70729 11.8025 8.51446 11.8857 8.359 12.052C8.203 12.2178 8.125 12.4234 8.125 12.6688C8.125 12.9142 8.203 13.1198 8.359 13.2856C8.51446 13.4519 8.70729 13.535 8.9375 13.535ZM10.1562 10.9363C10.3865 10.9363 10.5793 10.8531 10.7347 10.6868C10.8907 10.5211 10.9688 10.3155 10.9688 10.0701C10.9688 9.82463 10.8907 9.61875 10.7347 9.45243C10.5793 9.28669 10.3865 9.20382 10.1562 9.20382C9.92604 9.20382 9.73294 9.28669 9.57694 9.45243C9.42148 9.61875 9.34375 9.82463 9.34375 10.0701C9.34375 10.3155 9.42148 10.5211 9.57694 10.6868C9.73294 10.8531 9.92604 10.9363 10.1562 10.9363ZM6.5 17C4.78021 17 3.26706 16.3613 1.96056 15.0839C0.653521 13.8059 0 12.0769 0 9.89682C0 8.52527 0.4875 7.03822 1.4625 5.43567C2.4375 3.83312 3.91354 2.10064 5.89062 0.238217C5.97188 0.16603 6.06667 0.10828 6.175 0.0649682C6.28333 0.0216561 6.39167 0 6.5 0C6.60833 0 6.71667 0.0216561 6.825 0.0649682C6.93333 0.10828 7.02812 0.16603 7.10938 0.238217C9.08646 2.10064 10.5625 3.83312 11.5375 5.43567C12.5125 7.03822 13 8.52527 13 9.89682C13 12.0769 12.3465 13.8059 11.0394 15.0839C9.73294 16.3613 8.21979 17 6.5 17Z" fill="#08083D" fill-opacity="0.54"/>
</svg>
