<svg width="17" height="17" viewBox="0 0 17 17" fill="none" xmlns="http://www.w3.org/2000/svg">
<path fill-rule="evenodd" clip-rule="evenodd" d="M5.6667 2.83333C5.6667 2.44233 5.95924 2.125 6.32049 2.125H10.6796C11.0408 2.125 11.3334 2.44233 11.3334 2.83333C11.3334 3.22433 11.0408 3.54166 10.6796 3.54166H6.32049C5.95924 3.54166 5.6667 3.22433 5.6667 2.83333ZM6.92611 14.875H10.0739C12.2847 14.875 13.3904 14.875 14.1844 14.3636C14.526 14.1439 14.8211 13.8592 15.0528 13.5256C15.5834 12.7606 15.5834 11.6946 15.5834 9.5625C15.5834 7.43042 15.5834 6.36508 15.0521 5.59937C14.8207 5.26583 14.5258 4.9811 14.1844 4.76142C13.3904 4.25 12.2847 4.25 10.0739 4.25H6.92611C4.71541 4.25 3.6097 4.25 2.81566 4.76142C2.47426 4.98111 2.17942 5.26584 1.94795 5.59937C1.4167 6.36437 1.4167 7.43042 1.4167 9.56108V9.5625C1.4167 11.6946 1.4167 12.7599 1.94724 13.5256C2.17674 13.8571 2.47141 14.1419 2.81566 14.3636C3.6097 14.875 4.71541 14.875 6.92611 14.875ZM5.54841 9.5625C5.54841 7.99 6.87016 6.71642 8.50003 6.71642C10.1299 6.71642 11.4517 7.99071 11.4517 9.5625C11.4517 11.1343 10.1292 12.4086 8.50003 12.4086C6.87016 12.4086 5.54841 11.1336 5.54841 9.5625ZM6.7292 9.5625C6.7292 8.619 7.52253 7.85542 8.50003 7.85542C9.47753 7.85542 10.2709 8.61971 10.2709 9.5625C10.2709 10.5053 9.47753 11.2696 8.50003 11.2696C7.52253 11.2696 6.7292 10.5053 6.7292 9.5625ZM12.8287 6.71642C12.5028 6.71642 12.2386 6.97142 12.2386 7.28592C12.2386 7.59971 12.5028 7.85471 12.8287 7.85471H13.2225C13.5483 7.85471 13.8125 7.59971 13.8125 7.28592C13.8125 6.97142 13.5483 6.71642 13.2225 6.71642H12.8287Z" fill="#3873F9"/>
</svg>
