<svg width="219" height="24" viewBox="0 0 219 24" fill="none" xmlns="http://www.w3.org/2000/svg">
<path d="M11.2654 1.31366C10.616 0.699646 9.60011 0.699646 8.95067 1.31366L0.790922 9.02836C0.286058 9.5057 0 10.1698 0 10.8646V20.247C0 21.6426 1.13138 22.774 2.52701 22.774H5.05403C6.44966 22.774 7.58104 21.6426 7.58104 20.247V16.0353C7.58104 15.5701 7.95817 15.193 8.42338 15.193H11.7927C12.2579 15.193 12.6351 15.5701 12.6351 16.0353V20.247C12.6351 21.6426 13.7665 22.774 15.1621 22.774H17.6891C19.0847 22.774 20.2161 21.6426 20.2161 20.247V10.8646C20.2161 10.1698 19.9301 9.5057 19.4252 9.02836L11.2654 1.31366Z" fill="white"/>
<path d="M208.892 11.5521C212.082 11.5521 214.668 8.96639 214.668 5.77603C214.668 2.58568 212.082 0 208.892 0C205.702 0 203.116 2.58568 203.116 5.77603C203.116 8.96639 205.702 11.5521 208.892 11.5521ZM212.935 12.9961H212.182C211.18 13.4563 210.065 13.7181 208.892 13.7181C207.719 13.7181 206.609 13.4563 205.602 12.9961H204.849C201.5 12.9961 198.784 15.7126 198.784 19.0609V20.9381C198.784 22.1339 199.754 23.1041 200.95 23.1041H216.834C218.03 23.1041 219 22.1339 219 20.9381V19.0609C219 15.7126 216.283 12.9961 212.935 12.9961Z" fill="white"/>
</svg>
