<svg width="12" height="12" viewBox="0 0 12 12" fill="none" xmlns="http://www.w3.org/2000/svg">
<path d="M7.5 10.7786H6.3V11.542C6.3 11.6743 6.2576 11.7838 6.1728 11.8705C6.0876 11.9568 5.98 12 5.85 12C5.72 12 5.6126 11.9568 5.5278 11.8705C5.4426 11.7838 5.4 11.6743 5.4 11.542V8.79389C5.4 8.66158 5.4426 8.55206 5.5278 8.46534C5.6126 8.37903 5.72 8.33588 5.85 8.33588H7.5C7.74 8.33588 7.95 8.42748 8.13 8.61069C8.31 8.79389 8.4 9.00763 8.4 9.25191V9.8626C8.4 10.1069 8.31 10.3206 8.13 10.5038C7.95 10.687 7.74 10.7786 7.5 10.7786ZM9.9 10.4733V11.542C9.9 11.6743 9.8576 11.7838 9.7728 11.8705C9.6876 11.9568 9.58 12 9.45 12C9.32 12 9.2124 11.9568 9.1272 11.8705C9.0424 11.7838 9 11.6743 9 11.542V8.79389C9 8.66158 9.0424 8.55206 9.1272 8.46534C9.2124 8.37903 9.32 8.33588 9.45 8.33588C9.58 8.33588 9.6876 8.37903 9.7728 8.46534C9.8576 8.55206 9.9 8.66158 9.9 8.79389V9.55725H11.1V8.79389C11.1 8.66158 11.1424 8.55206 11.2272 8.46534C11.3124 8.37903 11.42 8.33588 11.55 8.33588C11.68 8.33588 11.7876 8.37903 11.8728 8.46534C11.9576 8.55206 12 8.66158 12 8.79389V11.542C12 11.6743 11.9576 11.7838 11.8728 11.8705C11.7876 11.9568 11.68 12 11.55 12C11.42 12 11.3124 11.9568 11.2272 11.8705C11.1424 11.7838 11.1 11.6743 11.1 11.542V10.4733H9.9ZM6.3 9.8626H7.5V9.25191H6.3V9.8626ZM4.2 11.9695C2.98 11.827 1.975 11.2926 1.185 10.3664C0.395 9.4402 0 8.31552 0 6.99237C0 6.34097 0.145 5.69201 0.435 5.0455C0.725 4.39939 1.09 3.78117 1.53 3.19084C1.97 2.60051 2.4476 2.0458 2.9628 1.52672C3.4776 1.00763 3.955 0.549618 4.395 0.152672C4.455 0.101781 4.5174 0.0635115 4.5822 0.0378626C4.6474 0.0126209 4.72 0 4.8 0C4.88 0 4.9526 0.0126209 5.0178 0.0378626C5.0826 0.0635115 5.145 0.101781 5.205 0.152672C5.655 0.559796 6.135 1.02025 6.645 1.53405C7.155 2.04824 7.63 2.60051 8.07 3.19084C8.51 3.78117 8.875 4.39695 9.165 5.03817C9.455 5.67939 9.6 6.33079 9.6 6.99237V7.1145H5.4C5.07 7.1145 4.7876 7.23399 4.5528 7.47298C4.3176 7.71237 4.2 8 4.2 8.33588V11.9695Z" fill="#08083D" fill-opacity="0.54"/>
</svg>
