<svg width="12" height="12" viewBox="0 0 12 12" fill="none" xmlns="http://www.w3.org/2000/svg">
<path fill-rule="evenodd" clip-rule="evenodd" d="M1.78635 1.20001L1.12683 1.84877L9.61363 10.2L10.2731 9.55105L1.78635 1.20001Z" fill="black" fill-opacity="0.6"/>
<path d="M2.52017 3.2198L3.14093 3.83063C2.46139 4.39996 1.92028 5.10865 1.57061 5.72869L1.56955 5.73079C2.54338 7.33298 4.08856 8.84716 6.03878 8.61749C6.5652 8.55547 7.05627 8.3784 7.50496 8.12506L8.13338 8.74322C7.25879 9.29558 6.25621 9.58811 5.16994 9.44352C3.2112 9.18285 1.60958 7.60203 0.599976 5.74546C1.07401 4.8069 1.72245 3.909 2.52017 3.2198ZM3.93204 2.31456C4.47976 2.07442 5.0724 1.93319 5.7053 1.92313C5.74044 1.92292 6.15761 1.94241 6.34671 1.973C6.46533 1.99228 6.58352 2.01638 6.7 2.04634C8.55801 2.52264 9.93454 4.06825 10.8 5.66059C10.4369 6.38206 9.96137 7.08613 9.39428 7.68941L8.79226 7.09703C9.21114 6.65279 9.56038 6.15826 9.82934 5.67861C9.82934 5.67861 9.55889 5.25072 9.35382 4.98208C9.222 4.80941 9.08337 4.64178 8.93771 4.48022C8.82271 4.35281 8.37615 3.9201 8.26989 3.83C7.55692 3.22671 6.71981 2.75335 5.71573 2.76131C5.32688 2.76739 4.95294 2.84283 4.59795 2.96981L3.93204 2.31456Z" fill="black" fill-opacity="0.6"/>
<path fill-rule="evenodd" clip-rule="evenodd" d="M4.20989 4.88281L4.68909 5.35415L6.53363 7.16916C6.28703 7.30537 6.00252 7.3829 5.69992 7.3829C4.7576 7.3829 3.99268 6.63021 3.99268 5.70297C3.99268 5.40521 4.07168 5.12546 4.20989 4.88281ZM5.6684 4.02346C5.67883 4.02325 5.68948 4.02304 5.69992 4.02304C6.64223 4.02304 7.40716 4.77594 7.40716 5.70297C7.40716 5.71345 7.40716 5.72372 7.40694 5.73398L5.6684 4.02346Z" fill="black" fill-opacity="0.6"/>
</svg>
