<svg width="12" height="16" viewBox="0 0 12 16" fill="none" xmlns="http://www.w3.org/2000/svg">
<path d="M0 6.45511C0 6.07796 0.188577 5.59927 0.551223 4.99002C0.91387 4.38077 1.27652 3.87307 1.61015 3.48141C1.69719 3.37987 1.81323 3.23481 1.94379 3.07524C2.07434 2.91568 2.16138 2.82865 2.17588 2.81414L2.7126 3.43789C3.11876 3.88757 3.48141 4.39528 3.81505 4.99002C4.14868 5.58476 4.32275 6.06346 4.32275 6.45511C4.32275 7.04986 4.11967 7.57207 3.699 7.99274C3.29283 8.41341 2.78513 8.631 2.17588 8.631C1.58114 8.631 1.05893 8.41341 0.638258 7.99274C0.217588 7.55756 0 7.04986 0 6.45511ZM4.52583 12.4751C4.52583 12.0544 4.64188 11.5757 4.87397 11.01C5.10607 10.4587 5.39619 9.93653 5.74433 9.47234C6.4116 8.58748 7.03535 7.84768 7.6446 7.25294C7.70262 7.20942 7.83317 7.09337 8.02175 6.9048L8.3844 7.25294C8.95013 7.78965 9.58838 8.52946 10.2992 9.45783C10.6763 9.95103 10.9664 10.4732 11.1985 11.0245C11.4306 11.5757 11.5467 12.0544 11.5467 12.4751C11.5467 13.476 11.213 14.3028 10.5313 14.9846C9.84949 15.6663 9.00815 16 8.02175 16C7.03535 16 6.20851 15.6518 5.52674 14.9701C4.84496 14.2883 4.52583 13.4469 4.52583 12.4751ZM6.73073 2.466C6.73073 1.84225 7.20942 1.01541 8.18131 0L8.54396 0.406165C8.81957 0.725294 9.06617 1.07343 9.28376 1.4796C9.50135 1.87126 9.6174 2.20489 9.6174 2.466C9.6174 2.87216 9.47234 3.19129 9.19673 3.4669C8.92111 3.72801 8.58748 3.87307 8.18131 3.87307C7.76064 3.87307 7.4125 3.74252 7.13689 3.4669C6.87579 3.19129 6.73073 2.85766 6.73073 2.466Z" fill="#08083D" fill-opacity="0.54"/>
</svg>
